<svg width="495" height="360" viewBox="0 0 495 360" fill="none" xmlns="http://www.w3.org/2000/svg">
<g clip-path="url(#clip0_2125_667)">
<path d="M288.337 63.4638C297.614 63.4638 305.135 55.9435 305.135 46.6667C305.135 37.3899 297.614 29.8696 288.337 29.8696C279.059 29.8696 271.539 37.3899 271.539 46.6667C271.539 55.9435 279.059 63.4638 288.337 63.4638Z" fill="#36BDF2"/>
<path d="M418.643 312.752C443.611 293.735 455.536 261.78 448.07 231.296C447.885 230.539 447.689 229.783 447.483 229.029C442.534 210.934 430.288 193.737 412.441 187.955C397.456 183.101 381.099 186.834 365.466 184.903C334.777 181.113 310.984 156.284 294.243 130.286C277.502 104.289 264.636 75.1887 242.39 53.7112C205.723 18.3091 145.908 10.687 100.445 33.7311C54.9825 56.7753 26.0232 107.901 27.2582 158.854C28.4933 209.806 58.7431 258.521 102.673 284.367C118.811 293.862 137.477 300.588 156.053 298.235C172.171 296.192 186.816 287.532 202.858 284.961C228.08 280.919 253.141 292.322 274.956 305.61C296.771 318.898 317.843 334.649 342.633 340.809C366.704 346.791 396.525 329.598 418.643 312.752Z" fill="#36BDF2"/>
<path d="M382.77 34.8011C382.222 34.4362 381.669 34.0902 381.121 33.7379C365.3 23.6196 348.342 15.3995 330.597 9.24758L326.483 66.0038H300.4V0.962503C298.758 0.622796 297.103 0.301962 295.449 0V66.0038H264.452C247.388 66.0038 231.023 59.2255 218.957 47.1601C206.891 35.0946 200.113 18.7303 200.113 1.66715C198.452 2.02573 196.803 2.40942 195.155 2.81833V66.0038H169.909L165.989 11.8835C147.754 18.8766 130.443 28.0729 114.44 39.2676C114.163 39.4564 113.886 39.6514 113.616 39.8401C112.225 40.8152 110.854 41.8092 109.489 42.8157V259.341H183.894L182.579 241.129L175.344 141.136H321.041L313.806 241.129L312.491 259.341H386.073V36.9903C384.978 36.248 383.877 35.5183 382.77 34.8011ZM195.155 124.622H174.149L170.267 70.961H195.155V124.622ZM295.449 124.622H260.168V123.559C260.168 123.048 260.067 122.542 259.871 122.07C259.676 121.598 259.389 121.169 259.027 120.808C258.665 120.447 258.236 120.16 257.763 119.965C257.291 119.77 256.785 119.67 256.274 119.671H240.936C240.425 119.671 239.919 119.771 239.448 119.967C238.976 120.162 238.547 120.448 238.186 120.81C237.825 121.171 237.539 121.599 237.343 122.071C237.148 122.543 237.048 123.048 237.048 123.559V124.622H200.113V70.961H295.449V124.622ZM300.4 124.622V70.961H326.124L322.243 124.622H300.4Z" fill="#3F3D56"/>
<path d="M0 273.207C5.46528 279.682 11.3766 285.768 17.6907 291.419L477.309 292.048C483.623 286.397 489.535 280.311 495 273.836L0 273.207Z" fill="#3F3D56"/>
<path d="M311.682 214.891V268.806C311.683 269.493 311.956 270.152 312.442 270.638C312.928 271.123 313.586 271.397 314.273 271.397H394.174C394.861 271.397 395.52 271.123 396.006 270.638C396.492 270.152 396.765 269.493 396.765 268.806V214.891C396.764 214.204 396.49 213.546 396.004 213.061C395.519 212.576 394.86 212.303 394.174 212.302H314.273C313.587 212.303 312.929 212.576 312.443 213.061C311.957 213.546 311.684 214.204 311.682 214.891Z" fill="#3F3D56"/>
<path d="M313.557 215.562V268.141C313.557 268.508 313.703 268.86 313.963 269.12C314.223 269.379 314.574 269.525 314.942 269.526H393.509C393.876 269.525 394.228 269.379 394.487 269.12C394.747 268.86 394.893 268.508 394.894 268.141V215.562C394.894 215.194 394.748 214.842 394.488 214.581C394.229 214.321 393.876 214.175 393.509 214.174H314.942C314.574 214.175 314.222 214.321 313.962 214.581C313.703 214.842 313.557 215.194 313.557 215.562Z" fill="#011222"/>
<path d="M310.011 279.321C310.158 279.504 310.344 279.652 310.555 279.754C310.767 279.855 310.999 279.907 311.234 279.906H396.788C397.022 279.905 397.253 279.853 397.464 279.752C397.676 279.651 397.862 279.505 398.009 279.323C398.156 279.141 398.262 278.929 398.317 278.702C398.372 278.474 398.375 278.238 398.327 278.009L396.999 271.701C396.944 271.443 396.826 271.204 396.654 271.004C396.483 270.804 396.265 270.651 396.019 270.557C395.841 270.487 395.651 270.451 395.46 270.452H312.557C312.365 270.451 312.176 270.487 311.998 270.557C311.752 270.651 311.534 270.804 311.363 271.004C311.191 271.204 311.073 271.443 311.018 271.701L309.69 278.009C309.642 278.237 309.647 278.474 309.702 278.701C309.758 278.928 309.864 279.14 310.011 279.321Z" fill="#2F2E41"/>
<path d="M392.525 273.169H394.545C394.715 273.169 394.853 273.031 394.853 272.862V271.895C394.853 271.725 394.715 271.588 394.545 271.588H392.525C392.355 271.588 392.218 271.725 392.218 271.895V272.862C392.218 273.031 392.355 273.169 392.525 273.169Z" fill="#3F3D56"/>
<path d="M387.255 273.169H389.275C389.445 273.169 389.583 273.031 389.583 272.862V271.895C389.583 271.725 389.445 271.588 389.275 271.588H387.255C387.085 271.588 386.947 271.725 386.947 271.895V272.862C386.947 273.031 387.085 273.169 387.255 273.169Z" fill="#3F3D56"/>
<path d="M381.985 273.169H384.005C384.175 273.169 384.312 273.031 384.312 272.862V271.895C384.312 271.725 384.175 271.588 384.005 271.588H381.985C381.815 271.588 381.677 271.725 381.677 271.895V272.862C381.677 273.031 381.815 273.169 381.985 273.169Z" fill="#3F3D56"/>
<path d="M376.715 273.169H378.735C378.905 273.169 379.042 273.031 379.042 272.862V271.895C379.042 271.725 378.905 271.588 378.735 271.588H376.715C376.545 271.588 376.407 271.725 376.407 271.895V272.862C376.407 273.031 376.545 273.169 376.715 273.169Z" fill="#3F3D56"/>
<path d="M371.445 273.169H373.465C373.635 273.169 373.772 273.031 373.772 272.862V271.895C373.772 271.725 373.635 271.588 373.465 271.588H371.445C371.275 271.588 371.137 271.725 371.137 271.895V272.862C371.137 273.031 371.275 273.169 371.445 273.169Z" fill="#3F3D56"/>
<path d="M366.174 273.169H368.195C368.365 273.169 368.502 273.031 368.502 272.862V271.895C368.502 271.725 368.365 271.588 368.195 271.588H366.174C366.005 271.588 365.867 271.725 365.867 271.895V272.862C365.867 273.031 366.005 273.169 366.174 273.169Z" fill="#3F3D56"/>
<path d="M360.904 273.169H362.925C363.095 273.169 363.232 273.031 363.232 272.862V271.895C363.232 271.725 363.095 271.588 362.925 271.588H360.904C360.735 271.588 360.597 271.725 360.597 271.895V272.862C360.597 273.031 360.735 273.169 360.904 273.169Z" fill="#3F3D56"/>
<path d="M355.634 273.169H357.655C357.825 273.169 357.962 273.031 357.962 272.862V271.895C357.962 271.725 357.825 271.588 357.655 271.588H355.634C355.465 271.588 355.327 271.725 355.327 271.895V272.862C355.327 273.031 355.465 273.169 355.634 273.169Z" fill="#3F3D56"/>
<path d="M350.364 273.169H352.385C352.554 273.169 352.692 273.031 352.692 272.862V271.895C352.692 271.725 352.554 271.588 352.385 271.588H350.364C350.194 271.588 350.057 271.725 350.057 271.895V272.862C350.057 273.031 350.194 273.169 350.364 273.169Z" fill="#3F3D56"/>
<path d="M345.094 273.169H347.115C347.284 273.169 347.422 273.031 347.422 272.862V271.895C347.422 271.725 347.284 271.588 347.115 271.588H345.094C344.924 271.588 344.787 271.725 344.787 271.895V272.862C344.787 273.031 344.924 273.169 345.094 273.169Z" fill="#3F3D56"/>
<path d="M339.824 273.169H341.845C342.014 273.169 342.152 273.031 342.152 272.862V271.895C342.152 271.725 342.014 271.588 341.845 271.588H339.824C339.654 271.588 339.517 271.725 339.517 271.895V272.862C339.517 273.031 339.654 273.169 339.824 273.169Z" fill="#3F3D56"/>
<path d="M334.554 273.169H336.575C336.744 273.169 336.882 273.031 336.882 272.862V271.895C336.882 271.725 336.744 271.588 336.575 271.588H334.554C334.384 271.588 334.247 271.725 334.247 271.895V272.862C334.247 273.031 334.384 273.169 334.554 273.169Z" fill="#3F3D56"/>
<path d="M329.284 273.169H331.304C331.474 273.169 331.612 273.031 331.612 272.862V271.895C331.612 271.725 331.474 271.588 331.304 271.588H329.284C329.114 271.588 328.977 271.725 328.977 271.895V272.862C328.977 273.031 329.114 273.169 329.284 273.169Z" fill="#3F3D56"/>
<path d="M324.014 273.169H326.034C326.204 273.169 326.342 273.031 326.342 272.862V271.895C326.342 271.725 326.204 271.588 326.034 271.588H324.014C323.844 271.588 323.706 271.725 323.706 271.895V272.862C323.706 273.031 323.844 273.169 324.014 273.169Z" fill="#3F3D56"/>
<path d="M318.744 273.169H320.764C320.934 273.169 321.072 273.031 321.072 272.862V271.895C321.072 271.725 320.934 271.588 320.764 271.588H318.744C318.574 271.588 318.437 271.725 318.437 271.895V272.862C318.437 273.031 318.574 273.169 318.744 273.169Z" fill="#3F3D56"/>
<path d="M313.473 273.169H315.494C315.664 273.169 315.801 273.031 315.801 272.862V271.895C315.801 271.725 315.664 271.588 315.494 271.588H313.473C313.304 271.588 313.166 271.725 313.166 271.895V272.862C313.166 273.031 313.304 273.169 313.473 273.169Z" fill="#3F3D56"/>
<path d="M392.587 275.804H394.608C394.778 275.804 394.915 275.666 394.915 275.497V274.53C394.915 274.36 394.778 274.223 394.608 274.223H392.587C392.417 274.223 392.28 274.36 392.28 274.53V275.497C392.28 275.666 392.417 275.804 392.587 275.804Z" fill="#3F3D56"/>
<path d="M387.317 275.804H389.338C389.508 275.804 389.645 275.666 389.645 275.497V274.53C389.645 274.36 389.508 274.223 389.338 274.223H387.317C387.147 274.223 387.01 274.36 387.01 274.53V275.497C387.01 275.666 387.147 275.804 387.317 275.804Z" fill="#3F3D56"/>
<path d="M382.047 275.804H384.068C384.237 275.804 384.375 275.666 384.375 275.497V274.53C384.375 274.36 384.237 274.223 384.068 274.223H382.047C381.877 274.223 381.74 274.36 381.74 274.53V275.497C381.74 275.666 381.877 275.804 382.047 275.804Z" fill="#3F3D56"/>
<path d="M376.777 275.804H378.798C378.967 275.804 379.105 275.666 379.105 275.497V274.53C379.105 274.36 378.967 274.223 378.798 274.223H376.777C376.607 274.223 376.47 274.36 376.47 274.53V275.497C376.47 275.666 376.607 275.804 376.777 275.804Z" fill="#3F3D56"/>
<path d="M371.507 275.804H373.527C373.697 275.804 373.834 275.666 373.834 275.497V274.53C373.834 274.36 373.697 274.223 373.527 274.223H371.507C371.337 274.223 371.199 274.36 371.199 274.53V275.497C371.199 275.666 371.337 275.804 371.507 275.804Z" fill="#3F3D56"/>
<path d="M366.237 275.804H368.257C368.427 275.804 368.564 275.666 368.564 275.497V274.53C368.564 274.36 368.427 274.223 368.257 274.223H366.237C366.067 274.223 365.929 274.36 365.929 274.53V275.497C365.929 275.666 366.067 275.804 366.237 275.804Z" fill="#3F3D56"/>
<path d="M360.967 275.804H362.987C363.157 275.804 363.294 275.666 363.294 275.497V274.53C363.294 274.36 363.157 274.223 362.987 274.223H360.967C360.797 274.223 360.659 274.36 360.659 274.53V275.497C360.659 275.666 360.797 275.804 360.967 275.804Z" fill="#3F3D56"/>
<path d="M355.696 275.804H357.717C357.887 275.804 358.024 275.666 358.024 275.497V274.53C358.024 274.36 357.887 274.223 357.717 274.223H355.696C355.527 274.223 355.389 274.36 355.389 274.53V275.497C355.389 275.666 355.527 275.804 355.696 275.804Z" fill="#3F3D56"/>
<path d="M350.427 275.804H352.447C352.617 275.804 352.754 275.666 352.754 275.497V274.53C352.754 274.36 352.617 274.223 352.447 274.223H350.427C350.257 274.223 350.119 274.36 350.119 274.53V275.497C350.119 275.666 350.257 275.804 350.427 275.804Z" fill="#3F3D56"/>
<path d="M345.156 275.804H347.177C347.347 275.804 347.484 275.666 347.484 275.497V274.53C347.484 274.36 347.347 274.223 347.177 274.223H345.156C344.987 274.223 344.849 274.36 344.849 274.53V275.497C344.849 275.666 344.987 275.804 345.156 275.804Z" fill="#3F3D56"/>
<path d="M339.886 275.804H341.907C342.077 275.804 342.214 275.666 342.214 275.497V274.53C342.214 274.36 342.077 274.223 341.907 274.223H339.886C339.717 274.223 339.579 274.36 339.579 274.53V275.497C339.579 275.666 339.717 275.804 339.886 275.804Z" fill="#3F3D56"/>
<path d="M334.616 275.804H336.637C336.807 275.804 336.944 275.666 336.944 275.497V274.53C336.944 274.36 336.807 274.223 336.637 274.223H334.616C334.447 274.223 334.309 274.36 334.309 274.53V275.497C334.309 275.666 334.447 275.804 334.616 275.804Z" fill="#3F3D56"/>
<path d="M329.346 275.804H331.367C331.537 275.804 331.674 275.666 331.674 275.497V274.53C331.674 274.36 331.537 274.223 331.367 274.223H329.346C329.177 274.223 329.039 274.36 329.039 274.53V275.497C329.039 275.666 329.177 275.804 329.346 275.804Z" fill="#3F3D56"/>
<path d="M324.076 275.804H326.097C326.266 275.804 326.404 275.666 326.404 275.497V274.53C326.404 274.36 326.266 274.223 326.097 274.223H324.076C323.906 274.223 323.769 274.36 323.769 274.53V275.497C323.769 275.666 323.906 275.804 324.076 275.804Z" fill="#3F3D56"/>
<path d="M318.806 275.804H320.827C320.996 275.804 321.134 275.666 321.134 275.497V274.53C321.134 274.36 320.996 274.223 320.827 274.223H318.806C318.636 274.223 318.499 274.36 318.499 274.53V275.497C318.499 275.666 318.636 275.804 318.806 275.804Z" fill="#3F3D56"/>
<path d="M313.536 275.804H315.557C315.726 275.804 315.864 275.666 315.864 275.497V274.53C315.864 274.36 315.726 274.223 315.557 274.223H313.536C313.366 274.223 313.229 274.36 313.229 274.53V275.497C313.229 275.666 313.366 275.804 313.536 275.804Z" fill="#3F3D56"/>
<path d="M348.845 278.966H369.312C369.481 278.966 369.619 278.828 369.619 278.658V277.692C369.619 277.522 369.481 277.385 369.312 277.385H348.845C348.676 277.385 348.538 277.522 348.538 277.692V278.658C348.538 278.828 348.676 278.966 348.845 278.966Z" fill="#3F3D56"/>
<path d="M327.162 225.677H325.373C324.831 225.677 324.391 226.116 324.391 226.659C324.391 227.201 324.831 227.641 325.373 227.641H327.162C327.705 227.641 328.144 227.201 328.144 226.659C328.144 226.116 327.705 225.677 327.162 225.677Z" fill="#FFC300"/>
<path d="M347.623 225.677H345.834C345.292 225.677 344.852 226.116 344.852 226.659C344.852 227.201 345.292 227.641 345.834 227.641H347.623C348.165 227.641 348.605 227.201 348.605 226.659C348.605 226.116 348.165 225.677 347.623 225.677Z" fill="#FFC300"/>
<path d="M353.42 225.677H351.631C351.089 225.677 350.649 226.116 350.649 226.659C350.649 227.201 351.089 227.641 351.631 227.641H353.42C353.962 227.641 354.402 227.201 354.402 226.659C354.402 226.116 353.962 225.677 353.42 225.677Z" fill="#FFC300"/>
<path d="M342.058 225.513H330.939C330.396 225.513 329.957 225.953 329.957 226.495C329.957 227.038 330.396 227.477 330.939 227.477H342.058C342.6 227.477 343.04 227.038 343.04 226.495C343.04 225.953 342.6 225.513 342.058 225.513Z" fill="#FFC300"/>
<path d="M369.338 225.513H358.219C357.677 225.513 357.237 225.953 357.237 226.495C357.237 227.038 357.677 227.477 358.219 227.477H369.338C369.881 227.477 370.32 227.038 370.32 226.495C370.32 225.953 369.881 225.513 369.338 225.513Z" fill="#FFC300"/>
<path d="M332.618 230.11H330.829C330.287 230.11 329.847 230.55 329.847 231.092C329.847 231.634 330.287 232.074 330.829 232.074H332.618C333.161 232.074 333.6 231.634 333.6 231.092C333.6 230.55 333.161 230.11 332.618 230.11Z" fill="#FFC300"/>
<path d="M353.079 230.11H351.29C350.748 230.11 350.308 230.55 350.308 231.092C350.308 231.634 350.748 232.074 351.29 232.074H353.079C353.621 232.074 354.061 231.634 354.061 231.092C354.061 230.55 353.621 230.11 353.079 230.11Z" fill="#FFC300"/>
<path d="M358.876 230.11H357.087C356.545 230.11 356.105 230.55 356.105 231.092C356.105 231.634 356.545 232.074 357.087 232.074H358.876C359.419 232.074 359.858 231.634 359.858 231.092C359.858 230.55 359.419 230.11 358.876 230.11Z" fill="#FFC300"/>
<path d="M347.514 229.946H336.395C335.852 229.946 335.413 230.386 335.413 230.928C335.413 231.47 335.852 231.91 336.395 231.91H347.514C348.056 231.91 348.496 231.47 348.496 230.928C348.496 230.386 348.056 229.946 347.514 229.946Z" fill="#FFC300"/>
<path d="M374.795 229.946H363.676C363.133 229.946 362.694 230.386 362.694 230.928C362.694 231.47 363.133 231.91 363.676 231.91H374.795C375.337 231.91 375.777 231.47 375.777 230.928C375.777 230.386 375.337 229.946 374.795 229.946Z" fill="#FFC300"/>
<path d="M338.075 234.543H336.286C335.743 234.543 335.303 234.982 335.303 235.525C335.303 236.067 335.743 236.507 336.286 236.507H338.075C338.617 236.507 339.057 236.067 339.057 235.525C339.057 234.982 338.617 234.543 338.075 234.543Z" fill="#FFC300"/>
<path d="M358.535 234.543H356.746C356.204 234.543 355.764 234.982 355.764 235.525C355.764 236.067 356.204 236.507 356.746 236.507H358.535C359.078 236.507 359.517 236.067 359.517 235.525C359.517 234.982 359.078 234.543 358.535 234.543Z" fill="#FFC300"/>
<path d="M364.332 234.543H362.543C362.001 234.543 361.561 234.982 361.561 235.525C361.561 236.067 362.001 236.507 362.543 236.507H364.332C364.875 236.507 365.314 236.067 365.314 235.525C365.314 234.982 364.875 234.543 364.332 234.543Z" fill="#FFC300"/>
<path d="M352.97 234.379H341.851C341.309 234.379 340.869 234.819 340.869 235.361C340.869 235.904 341.309 236.343 341.851 236.343H352.97C353.512 236.343 353.952 235.904 353.952 235.361C353.952 234.819 353.512 234.379 352.97 234.379Z" fill="#FFC300"/>
<path d="M380.251 234.379H369.132C368.589 234.379 368.15 234.819 368.15 235.361C368.15 235.904 368.589 236.343 369.132 236.343H380.251C380.793 236.343 381.233 235.904 381.233 235.361C381.233 234.819 380.793 234.379 380.251 234.379Z" fill="#FFC300"/>
<path d="M343.531 238.976H341.742C341.199 238.976 340.76 239.416 340.76 239.958C340.76 240.5 341.199 240.94 341.742 240.94H343.531C344.073 240.94 344.513 240.5 344.513 239.958C344.513 239.416 344.073 238.976 343.531 238.976Z" fill="#FFC300"/>
<path d="M363.991 238.976H362.202C361.66 238.976 361.22 239.416 361.22 239.958C361.22 240.5 361.66 240.94 362.202 240.94H363.991C364.534 240.94 364.973 240.5 364.973 239.958C364.973 239.416 364.534 238.976 363.991 238.976Z" fill="#FFC300"/>
<path d="M369.789 238.976H368C367.457 238.976 367.018 239.416 367.018 239.958C367.018 240.5 367.457 240.94 368 240.94H369.789C370.331 240.94 370.771 240.5 370.771 239.958C370.771 239.416 370.331 238.976 369.789 238.976Z" fill="#FFC300"/>
<path d="M358.426 238.812H347.307C346.765 238.812 346.325 239.252 346.325 239.794C346.325 240.336 346.765 240.776 347.307 240.776H358.426C358.968 240.776 359.408 240.336 359.408 239.794C359.408 239.252 358.968 238.812 358.426 238.812Z" fill="#FFC300"/>
<path d="M347.623 256.603H345.834C345.292 256.603 344.852 257.043 344.852 257.585C344.852 258.127 345.292 258.567 345.834 258.567H347.623C348.165 258.567 348.605 258.127 348.605 257.585C348.605 257.043 348.165 256.603 347.623 256.603Z" fill="#FFC300"/>
<path d="M353.42 256.603H351.631C351.089 256.603 350.649 257.043 350.649 257.585C350.649 258.127 351.089 258.567 351.631 258.567H353.42C353.962 258.567 354.402 258.127 354.402 257.585C354.402 257.043 353.962 256.603 353.42 256.603Z" fill="#FFC300"/>
<path d="M369.338 256.767H358.219C357.677 256.767 357.237 257.207 357.237 257.749C357.237 258.291 357.677 258.731 358.219 258.731H369.338C369.881 258.731 370.32 258.291 370.32 257.749C370.32 257.207 369.881 256.767 369.338 256.767Z" fill="#FFC300"/>
<path d="M327.162 256.603H325.373C324.831 256.603 324.391 257.043 324.391 257.585C324.391 258.127 324.831 258.567 325.373 258.567H327.162C327.705 258.567 328.144 258.127 328.144 257.585C328.144 257.043 327.705 256.603 327.162 256.603Z" fill="#FFC300"/>
<path d="M342.058 256.767H330.939C330.396 256.767 329.957 257.207 329.957 257.749C329.957 258.291 330.396 258.731 330.939 258.731H342.058C342.6 258.731 343.04 258.291 343.04 257.749C343.04 257.207 342.6 256.767 342.058 256.767Z" fill="#FFC300"/>
<path d="M332.618 252.17H330.829C330.287 252.17 329.847 252.61 329.847 253.152C329.847 253.695 330.287 254.134 330.829 254.134H332.618C333.161 254.134 333.6 253.695 333.6 253.152C333.6 252.61 333.161 252.17 332.618 252.17Z" fill="#FFC300"/>
<path d="M353.079 252.17H351.29C350.748 252.17 350.308 252.61 350.308 253.152C350.308 253.695 350.748 254.134 351.29 254.134H353.079C353.621 254.134 354.061 253.695 354.061 253.152C354.061 252.61 353.621 252.17 353.079 252.17Z" fill="#FFC300"/>
<path d="M358.876 252.17H357.087C356.545 252.17 356.105 252.61 356.105 253.152C356.105 253.695 356.545 254.134 357.087 254.134H358.876C359.419 254.134 359.858 253.695 359.858 253.152C359.858 252.61 359.419 252.17 358.876 252.17Z" fill="#FFC300"/>
<path d="M347.514 252.334H336.395C335.852 252.334 335.413 252.774 335.413 253.316C335.413 253.858 335.852 254.298 336.395 254.298H347.514C348.056 254.298 348.496 253.858 348.496 253.316C348.496 252.774 348.056 252.334 347.514 252.334Z" fill="#FFC300"/>
<path d="M338.075 247.737H336.286C335.743 247.737 335.303 248.177 335.303 248.719C335.303 249.262 335.743 249.701 336.286 249.701H338.075C338.617 249.701 339.057 249.262 339.057 248.719C339.057 248.177 338.617 247.737 338.075 247.737Z" fill="#FFC300"/>
<path d="M358.535 247.737H356.746C356.204 247.737 355.764 248.177 355.764 248.719C355.764 249.262 356.204 249.701 356.746 249.701H358.535C359.078 249.701 359.517 249.262 359.517 248.719C359.517 248.177 359.078 247.737 358.535 247.737Z" fill="#FFC300"/>
<path d="M364.332 247.737H362.543C362.001 247.737 361.561 248.177 361.561 248.719C361.561 249.262 362.001 249.701 362.543 249.701H364.332C364.875 249.701 365.314 249.262 365.314 248.719C365.314 248.177 364.875 247.737 364.332 247.737Z" fill="#FFC300"/>
<path d="M352.97 247.901H341.851C341.309 247.901 340.869 248.341 340.869 248.883C340.869 249.425 341.309 249.865 341.851 249.865H352.97C353.512 249.865 353.952 249.425 353.952 248.883C353.952 248.341 353.512 247.901 352.97 247.901Z" fill="#FFC300"/>
<path d="M343.531 243.304H341.742C341.199 243.304 340.76 243.744 340.76 244.286C340.76 244.829 341.199 245.268 341.742 245.268H343.531C344.073 245.268 344.513 244.829 344.513 244.286C344.513 243.744 344.073 243.304 343.531 243.304Z" fill="#FFC300"/>
<path d="M363.991 243.304H362.202C361.66 243.304 361.22 243.744 361.22 244.286C361.22 244.829 361.66 245.268 362.202 245.268H363.991C364.534 245.268 364.973 244.829 364.973 244.286C364.973 243.744 364.534 243.304 363.991 243.304Z" fill="#FFC300"/>
<path d="M369.789 243.304H368C367.457 243.304 367.018 243.744 367.018 244.286C367.018 244.829 367.457 245.268 368 245.268H369.789C370.331 245.268 370.771 244.829 370.771 244.286C370.771 243.744 370.331 243.304 369.789 243.304Z" fill="#FFC300"/>
<path d="M358.426 243.468H347.307C346.765 243.468 346.325 243.908 346.325 244.45C346.325 244.992 346.765 245.432 347.307 245.432H358.426C358.968 245.432 359.408 244.992 359.408 244.45C359.408 243.908 358.968 243.468 358.426 243.468Z" fill="#FFC300"/>
<path d="M317.651 308.556L309.252 295.281L335.614 274.268L346.494 262.214C347.908 260.648 349.708 259.48 351.714 258.827C353.72 258.175 355.863 258.06 357.927 258.495C359.992 258.93 361.906 259.899 363.479 261.305C365.051 262.711 366.227 264.506 366.889 266.509C367.87 269.477 367.659 272.711 366.301 275.527C364.943 278.343 362.544 280.521 359.61 281.601L342.405 287.94L317.651 308.556Z" fill="#FFB6B6"/>
<path d="M120.595 212.305V276.824H165.797V212.305C165.798 211.841 165.65 211.389 165.374 211.015C165.099 210.642 164.711 210.366 164.268 210.229C164.059 210.16 163.84 210.126 163.62 210.128H122.778C122.492 210.128 122.208 210.184 121.943 210.293C121.679 210.402 121.438 210.562 121.235 210.764C121.033 210.966 120.872 211.206 120.762 211.471C120.652 211.735 120.595 212.019 120.595 212.305ZM138.235 234.474C138.247 233.202 138.761 231.986 139.664 231.091C140.568 230.196 141.789 229.693 143.061 229.693C144.333 229.693 145.553 230.196 146.457 231.091C147.361 231.986 147.874 233.202 147.886 234.474V241.96C147.879 243.236 147.368 244.457 146.464 245.356C145.56 246.256 144.336 246.761 143.061 246.761C141.785 246.761 140.562 246.256 139.657 245.356C138.753 244.457 138.242 243.236 138.235 241.96V234.474Z" fill="#2F2E41"/>
<path d="M120.457 274.761V280.982C120.458 281.305 120.586 281.614 120.813 281.842C121.04 282.071 121.348 282.2 121.671 282.203H164.721C165.044 282.201 165.353 282.072 165.58 281.843C165.808 281.614 165.935 281.305 165.935 280.982V274.761H120.457Z" fill="#3F3D56"/>
<path d="M49.4861 115.098V232.901C49.4873 234.402 50.0842 235.842 51.1458 236.903C52.2073 237.965 53.6468 238.562 55.1481 238.563H229.727C231.229 238.562 232.668 237.965 233.73 236.903C234.791 235.842 235.388 234.402 235.389 232.901V115.098C235.386 113.598 234.788 112.161 233.727 111.101C232.666 110.041 231.227 109.445 229.727 109.443H55.1481C53.6481 109.445 52.21 110.041 51.1488 111.101C50.0875 112.161 49.4897 113.598 49.4861 115.098Z" fill="#3F3D56"/>
<path d="M53.5818 116.564V231.448C53.5832 232.25 53.9024 233.019 54.4696 233.586C55.0368 234.153 55.8057 234.472 56.6078 234.474H228.274C229.076 234.472 229.845 234.153 230.413 233.586C230.98 233.019 231.299 232.25 231.3 231.448V116.564C231.3 115.761 230.982 114.991 230.414 114.422C229.847 113.854 229.077 113.533 228.274 113.532H56.6078C55.8047 113.533 55.0351 113.854 54.4678 114.422C53.9005 114.991 53.5819 115.761 53.5818 116.564Z" fill="#011222"/>
<path d="M85.4401 281.781C85.6148 282 85.8369 282.177 86.0897 282.298C86.3425 282.419 86.6194 282.481 86.8997 282.48H189.03C189.309 282.479 189.585 282.417 189.837 282.296C190.089 282.176 190.311 282.001 190.487 281.784C190.663 281.567 190.789 281.314 190.854 281.042C190.92 280.771 190.924 280.488 190.867 280.215L189.282 272.685C189.216 272.378 189.075 272.092 188.87 271.853C188.666 271.615 188.405 271.432 188.112 271.32C187.899 271.236 187.673 271.194 187.445 271.194H88.4788C88.2505 271.194 88.0243 271.236 87.8119 271.32C87.5185 271.432 87.2577 271.615 87.0533 271.853C86.8489 272.092 86.7074 272.378 86.6417 272.685L85.0564 280.215C85 280.488 85.0051 280.77 85.0715 281.041C85.1379 281.312 85.2638 281.565 85.4401 281.781Z" fill="#2F2E41"/>
<path d="M222.703 129.358H62.0754C61.9085 129.354 61.7496 129.285 61.6328 129.166C61.5161 129.046 61.4507 128.886 61.4507 128.719C61.4507 128.552 61.5161 128.391 61.6328 128.272C61.7496 128.153 61.9085 128.084 62.0754 128.08H222.703C222.87 128.084 223.029 128.153 223.146 128.272C223.262 128.391 223.328 128.552 223.328 128.719C223.328 128.886 223.262 129.046 223.146 129.166C223.029 129.285 222.87 129.354 222.703 129.358Z" fill="#3F3D56"/>
<path d="M73.0096 124.819C75.0771 124.819 76.7531 123.106 76.7531 120.992C76.7531 118.879 75.0771 117.165 73.0096 117.165C70.9421 117.165 69.2661 118.879 69.2661 120.992C69.2661 123.106 70.9421 124.819 73.0096 124.819Z" fill="#3F3D56"/>
<path d="M85.9417 124.819C88.0092 124.819 89.6852 123.106 89.6852 120.992C89.6852 118.879 88.0092 117.165 85.9417 117.165C83.8743 117.165 82.1982 118.879 82.1982 120.992C82.1982 123.106 83.8743 124.819 85.9417 124.819Z" fill="#3F3D56"/>
<path d="M98.8739 124.819C100.941 124.819 102.617 123.106 102.617 120.992C102.617 118.879 100.941 117.165 98.8739 117.165C96.8064 117.165 95.1304 118.879 95.1304 120.992C95.1304 123.106 96.8064 124.819 98.8739 124.819Z" fill="#3F3D56"/>
<path d="M214.916 118.112H205.731C205.549 118.116 205.376 118.191 205.249 118.321C205.123 118.451 205.052 118.625 205.052 118.807C205.052 118.988 205.123 119.163 205.249 119.293C205.376 119.423 205.549 119.498 205.731 119.502H214.916C215.098 119.499 215.273 119.425 215.401 119.295C215.529 119.165 215.601 118.989 215.601 118.807C215.601 118.624 215.529 118.449 215.401 118.319C215.273 118.189 215.098 118.114 214.916 118.112Z" fill="#3F3D56"/>
<path d="M214.916 120.722H205.731C205.549 120.726 205.376 120.801 205.249 120.931C205.122 121.061 205.051 121.236 205.051 121.418C205.051 121.599 205.122 121.774 205.249 121.904C205.376 122.034 205.549 122.109 205.731 122.113H214.916C215.099 122.11 215.273 122.036 215.402 121.906C215.531 121.776 215.603 121.6 215.603 121.418C215.603 121.235 215.531 121.059 215.402 120.929C215.273 120.799 215.099 120.725 214.916 120.722Z" fill="#3F3D56"/>
<path d="M214.916 123.333H205.731C205.549 123.337 205.376 123.412 205.249 123.542C205.123 123.672 205.052 123.847 205.052 124.028C205.052 124.21 205.123 124.384 205.249 124.514C205.376 124.644 205.549 124.719 205.731 124.723H214.916C215.098 124.721 215.273 124.646 215.401 124.516C215.529 124.386 215.601 124.211 215.601 124.028C215.601 123.845 215.529 123.67 215.401 123.54C215.273 123.41 215.098 123.336 214.916 123.333Z" fill="#3F3D56"/>
<path d="M436.351 277.491C436.628 278.298 437.154 278.996 437.853 279.486C438.552 279.976 439.388 280.231 440.241 280.216L456.907 279.787C457.767 279.77 458.598 279.476 459.276 278.948C459.954 278.42 460.443 277.686 460.67 276.857L463.029 251.639C463.865 252.018 464.776 252.205 465.695 252.187C466.493 252.167 467.279 251.99 468.008 251.666C468.738 251.342 469.396 250.878 469.947 250.299C470.497 249.721 470.927 249.04 471.214 248.295C471.501 247.55 471.638 246.756 471.618 245.958C471.598 245.16 471.421 244.374 471.097 243.645C470.774 242.915 470.309 242.257 469.731 241.707C469.152 241.156 468.471 240.726 467.727 240.439C466.982 240.152 466.188 240.015 465.39 240.035C465.023 240.034 464.656 240.072 464.297 240.148C463.907 239.726 463.432 239.39 462.904 239.162C462.376 238.934 461.806 238.82 461.231 238.825L435.594 239.487C435.382 239.495 435.17 239.522 434.962 239.566C434.4 239.671 433.866 239.895 433.398 240.223C432.93 240.551 432.537 240.976 432.247 241.468C431.956 241.961 431.775 242.51 431.714 243.079C431.654 243.647 431.716 244.222 431.896 244.765L436.351 277.491ZM463.512 249.927L465.19 243.917C465.381 243.223 465.386 242.491 465.203 241.794C465.285 241.794 465.357 241.755 465.438 241.755C466.589 241.731 467.702 242.165 468.533 242.96C469.365 243.756 469.847 244.849 469.874 246C469.901 247.15 469.471 248.265 468.677 249.098C467.884 249.932 466.792 250.417 465.642 250.447C464.898 250.471 464.161 250.29 463.512 249.927Z" fill="#2F2E41"/>
<path d="M434.962 239.566C435.508 242.689 441.649 244.884 449.033 244.503C455.823 244.19 461.374 241.806 462.392 238.98C462.015 238.869 461.624 238.817 461.231 238.825L435.595 239.487C435.382 239.495 435.17 239.522 434.962 239.566Z" fill="#3F3D56"/>
<path d="M450.386 263.634C450.42 263.625 450.452 263.611 450.481 263.592L454.1 261.223C454.144 261.194 454.18 261.155 454.205 261.109C454.23 261.064 454.243 261.012 454.243 260.96C454.243 260.908 454.23 260.856 454.205 260.81C454.18 260.764 454.144 260.725 454.1 260.697L450.338 258.233C450.304 258.21 450.265 258.194 450.225 258.186C450.184 258.179 450.142 258.179 450.102 258.187C450.061 258.195 450.023 258.212 449.988 258.235C449.954 258.258 449.925 258.288 449.902 258.323C449.879 258.357 449.864 258.396 449.856 258.437C449.848 258.477 449.849 258.519 449.857 258.56C449.866 258.6 449.882 258.639 449.906 258.673C449.929 258.707 449.959 258.736 449.994 258.759L453.354 260.959L450.137 263.065C450.074 263.106 450.028 263.168 450.007 263.239C449.986 263.31 449.991 263.387 450.021 263.455C450.051 263.523 450.104 263.579 450.171 263.611C450.237 263.644 450.314 263.652 450.386 263.634Z" fill="#FFC300"/>
<path d="M444.669 263.897C444.73 263.882 444.785 263.849 444.827 263.802C444.868 263.755 444.895 263.697 444.904 263.635C444.912 263.573 444.902 263.51 444.874 263.454C444.847 263.397 444.803 263.351 444.749 263.319L441.412 261.407L444.637 259.012C444.67 258.987 444.698 258.956 444.719 258.921C444.74 258.885 444.754 258.846 444.761 258.805C444.767 258.764 444.764 258.723 444.754 258.683C444.744 258.643 444.726 258.605 444.702 258.572C444.677 258.539 444.646 258.511 444.611 258.49C444.575 258.468 444.536 258.454 444.495 258.448C444.455 258.442 444.413 258.445 444.373 258.455C444.333 258.465 444.295 258.482 444.262 258.507L440.652 261.189C440.61 261.22 440.576 261.261 440.554 261.308C440.532 261.355 440.522 261.408 440.525 261.46C440.528 261.512 440.544 261.562 440.572 261.607C440.599 261.651 440.637 261.688 440.683 261.714L444.436 263.865C444.506 263.906 444.59 263.917 444.669 263.897Z" fill="#FFC300"/>
<path d="M450.026 265.709C450.056 265.702 450.086 265.69 450.112 265.673C450.148 265.652 450.178 265.623 450.203 265.59C450.227 265.557 450.245 265.519 450.255 265.479C450.264 265.439 450.266 265.397 450.26 265.356C450.253 265.315 450.239 265.276 450.218 265.241L445.087 256.806C445.043 256.735 444.973 256.684 444.892 256.664C444.811 256.644 444.726 256.658 444.655 256.701C444.583 256.745 444.532 256.814 444.513 256.895C444.493 256.976 444.506 257.062 444.549 257.133L449.68 265.568C449.715 265.626 449.768 265.67 449.83 265.696C449.892 265.721 449.961 265.726 450.026 265.709Z" fill="#FFC300"/>
<path d="M161.581 164.083H133.78C132.646 164.083 131.727 165.002 131.727 166.136V168.852C131.727 169.987 132.646 170.906 133.78 170.906H161.581C162.716 170.906 163.635 169.987 163.635 168.852V166.136C163.635 165.002 162.716 164.083 161.581 164.083Z" fill="#FFC300"/>
<path d="M177.787 177.729H117.575C116.441 177.729 115.522 178.648 115.522 179.782V182.498C115.522 183.632 116.441 184.552 117.575 184.552H177.787C178.921 184.552 179.84 183.632 179.84 182.498V179.782C179.84 178.648 178.921 177.729 177.787 177.729Z" fill="#FBF5DF"/>
<path d="M177.787 191.375H117.575C116.441 191.375 115.522 192.294 115.522 193.428V196.144C115.522 197.278 116.441 198.197 117.575 198.197H177.787C178.921 198.197 179.84 197.278 179.84 196.144V193.428C179.84 192.294 178.921 191.375 177.787 191.375Z" fill="#FBF5DF"/>
<path d="M182.891 237.069L183.027 237.499L183.034 237.514L187.139 249.994L191.862 264.375L200.746 291.402L200.832 295.6V295.614L201.493 329.386L199.663 333.965L201.722 341.471C201.722 341.471 200.775 330.125 195.694 336.641C192.816 340.344 189.45 344.133 186.687 347.685C190.713 349.314 194.804 350.788 198.959 352.106C199.856 352.393 200.761 352.666 201.665 352.938C201.859 352.996 202.052 353.053 202.246 353.111C216.021 357.184 230.261 359.473 244.618 359.921C245.364 359.943 246.096 359.957 246.807 359.971C247.058 359.978 247.302 359.986 247.546 359.986C248.35 359.993 249.146 360 249.95 360C251.572 360 253.187 359.976 254.794 359.928C266.693 359.593 278.522 357.993 290.082 355.156C290.003 350.384 289.788 344.807 289.479 338.851C289.336 335.93 286.114 332.765 285.92 329.708C285.783 327.412 288.676 325.252 288.525 322.919C287.549 308.559 286.329 314.072 285.425 303.903C285.331 302.905 285.245 301.951 285.166 301.039C284.585 294.509 284.183 290.425 284.183 290.425L288.044 266.09L294.108 227.883L293.642 227.115L293.118 226.857L261.131 211.026L259.395 206.576C258.889 205.294 258.011 204.193 256.874 203.414C255.737 202.636 254.393 202.215 253.014 202.206L231.944 202.12C230.85 202.115 229.771 202.371 228.796 202.866C227.822 203.362 226.979 204.082 226.339 204.969L220.633 212.87L182.891 237.069Z" fill="#3F3D56"/>
<path d="M205.605 285.388L200.832 295.6L197.574 302.575L191.969 331.92L189.163 334.898L186.759 324.355L161.596 329.942C160.77 325.356 161.375 330.097 160.865 325.066C161.009 324.923 161.159 324.779 161.31 324.636C161.712 324.262 162.049 323.911 162.042 323.573C161.755 306.221 162.616 276.69 169.807 258.799C170.934 255.878 172.419 253.108 174.228 250.553C174.372 250.36 174.508 250.166 174.645 249.972C177.96 245.329 180.056 240.758 183.027 237.507V237.5C183.045 237.485 183.062 237.468 183.077 237.449C183.088 237.444 183.098 237.437 183.106 237.428L203.517 226.606L204.392 251.206L205.017 268.889L205.605 285.388Z" fill="#3F3D56"/>
<path d="M279.202 288.288L285.163 301.043L287.244 305.485L292.848 334.827L295.644 337.797L298.054 327.257L299.186 327.025L319.607 322.796L325.558 341.697C326.9 339.462 327.428 336.833 327.054 334.253C326.681 331.673 325.427 329.302 323.507 327.539C323.1 327.172 322.762 326.814 322.771 326.475C323.11 306.065 321.861 268.798 310.587 253.459C307.006 248.592 304.858 243.743 301.732 240.356C301.722 240.347 301.722 240.337 301.712 240.337L294.106 227.882L293.641 227.118L293.119 226.856L279.202 288.288Z" fill="#3F3D56"/>
<path d="M243.088 196.123C258.569 196.123 271.12 183.573 271.12 168.092C271.12 152.611 258.569 140.061 243.088 140.061C227.606 140.061 215.055 152.611 215.055 168.092C215.055 183.573 227.606 196.123 243.088 196.123Z" fill="#FFB6B6"/>
<path d="M280.977 148.513C280.759 148.281 280.497 148.095 280.207 147.966C279.916 147.838 279.602 147.769 279.284 147.764L279.706 146.594C279.843 146.226 279.88 145.827 279.813 145.44C279.746 145.052 279.577 144.689 279.324 144.388C279.07 144.087 278.741 143.859 278.371 143.727C278 143.596 277.601 143.564 277.214 143.638L275.679 143.933L275.824 142.908C275.88 142.526 275.835 142.136 275.694 141.777C275.553 141.418 275.321 141.101 275.021 140.859C274.721 140.616 274.362 140.456 273.981 140.394C273.601 140.332 273.21 140.37 272.848 140.505C272.519 140.634 272.166 140.688 271.813 140.663C271.46 140.638 271.117 140.535 270.81 140.36C270.501 140.191 270.233 139.956 270.025 139.672C269.816 139.389 269.672 139.063 269.602 138.718L269.067 136.139L269.011 136C266.406 131.66 261.399 128.502 255.271 127.344C249.816 126.306 244.224 126.835 238.832 127.332C236.693 127.533 234.277 127.759 232.264 128.992C230.553 130.049 229.106 132.163 229.402 134.296C224.086 132.666 218.386 135.919 215.561 140.02C212.214 144.902 211.667 151.017 211.579 155.798C211.34 167.109 213.674 176.363 218.499 183.308C218.851 183.811 218.94 184.862 219.638 185.214L219.493 184.981C220.273 185.371 221.066 186 220.77 186.673C219.921 188.611 225.564 192.895 229.54 194.31C236.794 196.896 246.438 196.676 253.22 195.745L253.459 194.141C255.906 193.807 257.63 193.172 258.115 192.178C258.97 191.448 259.7 190.794 260.335 190.19L260.342 190.184C260.354 190.171 260.379 190.152 260.392 190.14C263.456 187.202 264.167 185.528 264.487 182.981C264.796 180.483 264.248 177.948 263.688 175.664C275.478 177.489 259.046 163.108 270.03 160.327C270.156 160.288 270.284 160.257 270.414 160.233C270.735 160.157 271.055 160.082 271.364 159.994C272.85 159.59 274.272 158.983 275.591 158.188C278.661 156.32 279.674 153.841 281.26 151.048C281.488 150.65 281.584 150.19 281.533 149.734C281.482 149.278 281.287 148.85 280.977 148.513Z" fill="#2F2E41"/>
<path d="M342.234 290.284C342.227 291.385 342.215 292.926 342.164 294.832C342.158 295.097 342.152 295.367 342.145 295.644C342.064 299.148 341.982 302.086 341.85 305.351C341.844 305.577 341.837 305.797 341.825 306.024C341.648 310.578 341.372 315.882 340.894 324.28C340.006 339.793 338.459 326.412 336.905 331.854C336.829 332.125 336.748 332.445 336.672 332.823C336.437 334.192 336.04 335.529 335.489 336.805C334.665 337.296 333.816 337.768 332.979 338.239C330.595 339.567 328.173 340.844 325.732 342.058C324.36 342.737 322.983 343.404 321.599 344.046C321.378 344.146 321.165 344.247 320.951 344.341C313.863 347.62 306.559 350.407 299.089 352.683C297.629 353.124 296.176 353.551 294.704 353.948C293.169 354.375 291.634 354.778 290.08 355.155C278.52 357.993 266.691 359.594 254.793 359.93C253.189 359.981 251.572 359.999 249.949 359.999C249.143 359.999 248.351 359.993 247.546 359.987C247.3 359.987 247.055 359.981 246.809 359.974C246.099 359.955 245.362 359.943 244.62 359.924C230.263 359.476 216.023 357.186 202.249 353.111L201.664 352.941C200.758 352.664 199.859 352.394 198.959 352.104C194.807 350.79 190.715 349.318 186.685 347.688C183.609 346.449 180.568 345.119 177.563 343.7C177.535 343.692 177.51 343.68 177.487 343.662C176.858 343.373 176.223 343.071 175.594 342.762C175.512 342.718 175.424 342.674 175.336 342.63C172.989 341.485 170.668 340.286 168.371 339.032C166.44 334.597 163.722 333.748 162.036 329.847C161.546 328.689 161.191 327.477 160.979 326.236C160.979 326.224 160.973 326.211 160.973 326.192C161.149 328.532 160.224 322.04 160.967 326.167C160.96 326.092 160.954 326.01 160.948 325.915C160.929 325.689 160.904 325.412 160.866 325.066C158.708 303.998 158.847 279.904 157.909 260.05C157.846 258.767 157.781 257.538 157.714 256.364C157.695 255.974 157.67 255.59 157.645 255.212C157.689 255.099 157.739 254.98 157.796 254.866C157.808 254.834 157.823 254.802 157.84 254.772C157.859 254.733 157.88 254.695 157.903 254.659C157.916 254.64 157.934 254.615 157.947 254.596C157.956 254.574 157.967 254.553 157.978 254.533C158.035 254.445 158.098 254.351 158.167 254.262C158.199 254.225 158.224 254.193 158.255 254.162C158.277 254.13 158.302 254.1 158.331 254.074C158.35 254.044 158.373 254.016 158.4 253.992C158.425 253.967 158.45 253.935 158.482 253.904C158.495 253.884 158.512 253.867 158.532 253.854C158.582 253.796 158.637 253.744 158.696 253.696C158.92 253.49 159.16 253.301 159.413 253.13C159.501 253.074 159.595 253.017 159.683 252.954C160.317 252.575 160.985 252.255 161.678 251.998C161.917 251.91 162.156 251.828 162.414 251.74C162.508 251.715 162.596 251.683 162.691 251.652C162.829 251.608 162.967 251.564 163.112 251.532C163.829 251.318 164.603 251.136 165.44 250.966C165.54 250.947 165.647 250.928 165.754 250.903C165.905 250.872 166.063 250.847 166.22 250.821C166.434 250.784 166.654 250.746 166.874 250.708C168.743 250.412 170.863 250.192 173.203 250.048C173.423 250.035 173.643 250.022 173.864 250.01C174.122 249.997 174.379 249.985 174.644 249.972C174.864 249.96 175.09 249.953 175.317 249.947C175.537 249.934 175.764 249.928 175.996 249.922C176.632 249.903 177.286 249.884 177.953 249.871C179.853 249.834 181.853 249.846 183.955 249.89C184.93 249.916 185.924 249.941 186.943 249.985C187.012 249.985 187.075 249.991 187.138 249.991C188.025 250.022 188.918 250.06 189.837 250.111C190.479 250.142 191.126 250.173 191.774 250.211C192.385 250.249 193.001 250.287 193.624 250.331C194.108 250.356 194.593 250.394 195.084 250.425C195.499 250.457 195.914 250.488 196.329 250.513L196.895 250.551C197.204 250.576 197.512 250.595 197.827 250.626C198.519 250.683 199.211 250.74 199.915 250.796C200.614 250.859 201.324 250.922 202.035 250.985C202.746 251.048 203.463 251.117 204.181 251.186C204.256 251.193 204.325 251.199 204.395 251.205C205.049 251.274 205.703 251.337 206.364 251.406C206.515 251.419 206.672 251.432 206.823 251.45C207.453 251.514 208.095 251.588 208.73 251.655C208.925 251.676 209.119 251.697 209.315 251.718C209.813 251.772 210.304 251.819 210.805 251.878C211.466 251.954 212.139 252.023 212.793 252.111C213.303 252.168 213.812 252.224 214.322 252.287C215.121 252.382 215.932 252.482 216.744 252.589C217.052 252.627 217.361 252.665 217.669 252.709C219.984 252.998 222.324 253.319 224.702 253.652C228.307 254.162 231.969 254.715 235.655 255.313C239.348 255.911 243.062 256.542 246.797 257.207C247.74 257.376 248.684 257.546 249.634 257.722C250.062 257.804 250.49 257.886 250.917 257.968C251.647 258.1 252.377 258.238 253.107 258.377C253.837 258.515 254.566 258.653 255.296 258.798C256.164 258.968 257.039 259.138 257.907 259.308C263.626 260.44 269.313 261.648 274.862 262.912C275.774 263.12 276.686 263.334 277.592 263.542C279.404 263.963 281.199 264.391 282.977 264.825C283.468 264.938 283.952 265.058 284.437 265.177C285.645 265.479 286.853 265.781 288.042 266.089L288.249 266.146C289.124 266.36 289.979 266.58 290.835 266.806C292.854 267.335 294.84 267.87 296.793 268.411C298.089 268.769 299.37 269.132 300.636 269.499C302.53 270.046 304.386 270.6 306.191 271.16C306.638 271.298 307.085 271.437 307.525 271.569C308.846 271.978 310.149 272.393 311.413 272.808C312.42 273.135 313.401 273.469 314.37 273.802C315.339 274.135 316.289 274.469 317.22 274.802C317.818 275.016 318.409 275.243 319 275.456C319.85 275.771 320.686 276.086 321.504 276.4C321.756 276.494 322.001 276.595 322.247 276.689C322.404 276.759 322.555 276.815 322.706 276.878C323.001 276.998 323.303 277.111 323.593 277.23C323.889 277.344 324.178 277.463 324.467 277.589C324.75 277.702 325.04 277.822 325.317 277.941C325.6 278.055 325.877 278.174 326.153 278.3C326.386 278.394 326.613 278.495 326.833 278.596C327.279 278.791 327.726 278.986 328.16 279.187C328.374 279.288 328.588 279.382 328.802 279.483L329.293 279.709C329.362 279.747 329.431 279.778 329.5 279.81C329.657 279.885 329.821 279.967 329.978 280.042C330.343 280.212 330.702 280.395 331.054 280.565C331.526 280.804 331.985 281.043 332.426 281.275C332.872 281.514 333.306 281.754 333.722 281.986C333.791 282.024 333.854 282.062 333.923 282.1C334.017 282.15 334.112 282.207 334.206 282.257C334.527 282.439 334.835 282.628 335.143 282.81C335.747 283.182 336.32 283.546 336.855 283.911C336.974 283.993 337.087 284.075 337.207 284.15C337.603 284.433 337.981 284.71 338.333 284.993C338.333 285 338.333 285 338.339 285C338.459 285.088 338.572 285.182 338.685 285.27C338.78 285.358 338.88 285.434 338.975 285.522C339.302 285.805 339.604 286.075 339.881 286.352C339.973 286.438 340.062 286.528 340.145 286.623C340.181 286.653 340.215 286.687 340.245 286.723C340.371 286.849 340.485 286.975 340.591 287.101C340.608 287.118 340.623 287.137 340.636 287.157C340.787 287.334 340.925 287.51 341.057 287.686C341.12 287.774 341.189 287.862 341.246 287.95C341.321 288.057 341.397 288.17 341.46 288.277C341.516 288.365 341.567 288.46 341.617 288.548C341.75 288.774 341.864 289.012 341.957 289.259C342.027 289.426 342.084 289.598 342.127 289.774C342.174 289.942 342.21 290.112 342.234 290.284Z" fill="#2F2E41"/>
<path opacity="0.2" d="M342.234 290.284C342.227 291.385 342.215 292.926 342.164 294.832C342.158 295.097 342.145 295.367 342.139 295.644C342.076 298.317 341.982 301.62 341.85 305.351C341.843 305.577 341.837 305.797 341.825 306.024C341.648 310.578 341.372 315.882 340.893 324.28C340.006 339.793 338.459 326.413 336.905 331.854C332.589 329.199 327.858 326.419 322.8 323.563C321.888 323.047 320.967 322.529 320.038 322.009C309.922 316.366 298.623 310.453 286.827 304.596C286.362 304.363 285.89 304.13 285.424 303.904C258.404 290.548 228.911 277.558 205.017 268.889C200.406 267.215 196.002 265.706 191.863 264.378C183.143 261.591 175.606 259.641 169.806 258.798C163.766 257.918 159.595 258.232 157.909 260.05C157.846 258.767 157.781 257.538 157.714 256.364C157.689 255.974 157.664 255.59 157.639 255.212C157.677 255.109 157.728 255.01 157.777 254.91C157.784 254.896 157.789 254.881 157.796 254.866C157.808 254.834 157.823 254.802 157.84 254.772C157.859 254.733 157.88 254.695 157.903 254.659C157.923 254.614 157.949 254.572 157.978 254.533C158.035 254.445 158.098 254.351 158.167 254.262C158.218 254.197 158.273 254.133 158.331 254.074C158.35 254.044 158.373 254.016 158.4 253.992C158.425 253.967 158.45 253.935 158.482 253.904C158.495 253.884 158.512 253.867 158.532 253.854C158.582 253.796 158.637 253.744 158.696 253.696C158.92 253.49 159.16 253.301 159.413 253.13C159.501 253.074 159.595 253.017 159.683 252.954C160.317 252.575 160.985 252.255 161.678 251.998C161.917 251.91 162.156 251.828 162.414 251.74C162.508 251.715 162.596 251.683 162.69 251.652C162.829 251.608 162.967 251.564 163.112 251.532C163.829 251.318 164.603 251.136 165.44 250.966C165.691 250.916 165.956 250.865 166.22 250.821C166.434 250.784 166.654 250.746 166.874 250.708C168.743 250.413 170.863 250.192 173.203 250.048C173.423 250.035 173.643 250.022 173.864 250.01C174.121 249.997 174.379 249.985 174.644 249.972C174.864 249.96 175.09 249.953 175.317 249.947C175.537 249.934 175.763 249.928 175.996 249.922C176.632 249.903 177.286 249.884 177.953 249.871C179.853 249.84 181.853 249.853 183.955 249.897C184.93 249.916 185.924 249.947 186.943 249.991C187.006 249.991 187.075 249.997 187.138 249.997C188.025 250.022 188.925 250.067 189.837 250.111C190.478 250.142 191.126 250.173 191.774 250.211C192.385 250.249 193.001 250.287 193.624 250.331C194.108 250.356 194.593 250.394 195.084 250.425C195.499 250.457 195.914 250.488 196.329 250.513C196.826 250.551 197.323 250.589 197.827 250.626C198.519 250.683 199.211 250.74 199.915 250.796C200.613 250.859 201.324 250.922 202.035 250.985C202.746 251.048 203.463 251.117 204.181 251.186C204.256 251.193 204.325 251.199 204.394 251.205C205.049 251.274 205.703 251.337 206.364 251.406C210.025 251.778 213.793 252.212 217.669 252.709C219.984 253.004 222.328 253.321 224.702 253.659C228.307 254.168 231.969 254.722 235.655 255.313C239.348 255.911 243.062 256.542 246.797 257.207C247.74 257.376 248.684 257.546 249.634 257.722C250.792 257.936 251.949 258.154 253.107 258.377C253.837 258.515 254.566 258.654 255.296 258.798C256.164 258.968 257.039 259.138 257.907 259.308C263.626 260.44 269.313 261.648 274.862 262.912C275.774 263.12 276.686 263.334 277.592 263.542C279.404 263.963 281.199 264.391 282.977 264.825C283.468 264.944 283.952 265.064 284.437 265.183C285.651 265.485 286.852 265.787 288.042 266.089V266.096C288.111 266.108 288.18 266.127 288.249 266.146C289.117 266.366 289.979 266.586 290.835 266.813C292.854 267.341 294.84 267.874 296.793 268.411C298.089 268.776 299.372 269.134 300.636 269.499C302.53 270.053 304.386 270.606 306.192 271.16C306.638 271.298 307.085 271.437 307.525 271.569C308.846 271.984 310.142 272.397 311.413 272.808C312.42 273.135 313.401 273.469 314.37 273.802C315.339 274.135 316.289 274.469 317.22 274.802C317.824 275.016 318.415 275.236 319 275.45C319.856 275.765 320.686 276.079 321.504 276.4C321.756 276.494 322.001 276.595 322.246 276.689C322.706 276.866 323.152 277.048 323.593 277.23C323.888 277.344 324.178 277.463 324.467 277.589C324.75 277.702 325.04 277.822 325.317 277.941C325.6 278.055 325.876 278.174 326.153 278.3C326.386 278.394 326.613 278.495 326.833 278.596C327.279 278.791 327.726 278.986 328.16 279.187C328.374 279.288 328.588 279.382 328.802 279.483L329.293 279.709C329.362 279.747 329.431 279.778 329.5 279.81C330.035 280.061 330.551 280.313 331.054 280.565C331.526 280.804 331.985 281.043 332.426 281.276C332.948 281.552 333.445 281.823 333.923 282.1C334.017 282.15 334.112 282.207 334.206 282.257C334.527 282.439 334.835 282.628 335.143 282.81C335.747 283.182 336.32 283.546 336.855 283.911C337.383 284.276 337.874 284.635 338.333 284.993C338.333 285 338.333 285 338.339 285C338.559 285.176 338.773 285.352 338.975 285.522C339.302 285.805 339.604 286.075 339.881 286.352C339.973 286.438 340.062 286.528 340.145 286.623C340.181 286.653 340.215 286.687 340.245 286.723C340.378 286.868 340.51 287.013 340.636 287.157C340.787 287.334 340.925 287.51 341.057 287.686C341.12 287.774 341.189 287.862 341.246 287.95C341.321 288.057 341.397 288.17 341.46 288.277C341.516 288.365 341.567 288.46 341.617 288.548C341.751 288.774 341.864 289.012 341.957 289.259C342.026 289.426 342.082 289.599 342.127 289.774C342.174 289.942 342.21 290.112 342.234 290.284Z" fill="black"/>
</g>
<defs>
<clipPath id="clip0_2125_667">
<rect width="495" height="360" fill="white"/>
</clipPath>
</defs>
</svg>
